<svg width="21" height="16" viewBox="0 0 21 16" fill="none" xmlns="http://www.w3.org/2000/svg">
<path d="M0 14C0 14.7029 0.56982 15.2727 1.27273 15.2727H19.7273C20.4302 15.2727 21 14.7029 21 14C21 13.2971 20.4302 12.7273 19.7273 12.7273H1.27273C0.569821 12.7273 0 13.2971 0 14ZM0 7.63636C0 8.33927 0.56982 8.90909 1.27273 8.90909H19.7273C20.4302 8.90909 21 8.33927 21 7.63636C21 6.93346 20.4302 6.36364 19.7273 6.36364H1.27273C0.569821 6.36364 0 6.93346 0 7.63636ZM1.27273 0C0.569821 0 0 0.569819 0 1.27273C0 1.97564 0.56982 2.54545 1.27273 2.54545H19.7273C20.4302 2.54545 21 1.97564 21 1.27273C21 0.569819 20.4302 0 19.7273 0H1.27273Z" fill="black"/>
</svg>
